<svg xmlns="http://www.w3.org/2000/svg" width="401.707" height="409" viewBox="0 0 401.707 409">
  <g id="ballot-1294935" transform="translate(-296.902 -201.118)">
    <g id="Group_31" data-name="Group 31">
      <path id="Path_23" data-name="Path 23" d="M327.064,500.224v104.66H693.375V500.224Z" fill="#00c39a" stroke="#aed8cf" stroke-width="10.466" fill-rule="evenodd"/>
      <path id="Path_24" data-name="Path 24" d="M409.484,549.938l-3.925-154.374H614.88V552.555Z" fill="#00c39a" stroke="#aed8cf" stroke-width="5.233" fill-rule="evenodd"/>
      <path id="Path_25" data-name="Path 25" d="M423.875,481.909l13.083,13.083,26.165-52.33" fill="none" stroke="#aed8cf" stroke-width="7.85"/>
      <path id="Path_26" data-name="Path 26" d="M484.054,447.894h91.578" fill="none" stroke="#aed8cf" stroke-width="7.85"/>
      <path id="Path_27" data-name="Path 27" d="M484.054,474.059h91.578" fill="none" stroke="#aed8cf" stroke-width="7.85"/>
      <path id="Path_28" data-name="Path 28" d="M484.054,500.224h91.578" fill="none" stroke="#aed8cf" stroke-width="7.85"/>
      <path id="Path_29" data-name="Path 29" d="M408.176,245.115l126.9,65.413,48.405,85.037H532.46l-22.24-30.09s-13.564-2.549-18.316,1.308c-4.93,4-5.233,18.316-5.233,18.316l53.638,41.864s.711,20.222-3.925,24.857-22.24,3.925-22.24,3.925c-38.375-31.228-66.285-47.636-104.66-61.488l-20.932-65.413-14.391-3.925Z" fill="#00c39a" stroke="#aed8cf" stroke-width="5.233" fill-rule="evenodd"/>
      <path id="Path_30" data-name="Path 30" d="M303.515,314.452l41.864-105.969,64.1,34.015L365,345.85Z" fill="#00c39a" stroke="#aed8cf" stroke-width="10.466" fill-rule="evenodd"/>
      <path id="Path_31" data-name="Path 31" d="M379.394,552.555H641.045" fill="none" stroke="#aed8cf" stroke-width="13.083"/>
    </g>
  </g>
</svg>
